<?xml version="1.0" encoding="utf-8"?>
<svg viewBox="0 0 500 500" xmlns="http://www.w3.org/2000/svg">
  <path d="M 309.402 144.44 C 316.885 150.916 322.498 158.557 327.887 166.783 C 334.474 176.636 341.443 186.224 348.598 195.67 C 351.635 199.761 354.512 203.956 357.387 208.162 C 359.061 210.599 360.78 212.996 362.527 215.381 C 362.99 216.015 363.452 216.649 363.928 217.302 C 364.826 218.529 365.73 219.753 366.64 220.972 C 369.738 225.22 369.738 225.22 369.738 228.553 C 370.398 228.553 371.058 228.553 371.738 228.553 C 373.496 230.704 375.129 232.857 376.738 235.115 C 377.22 235.789 377.702 236.463 378.199 237.157 C 379.208 238.576 380.214 239.996 381.217 241.419 C 382.679 243.469 384.178 245.487 385.688 247.502 C 394.283 259.244 394.283 259.244 393.457 267.01 C 392.102 271.806 389.648 275.55 386.738 279.553 C 385.868 280.777 385.868 280.777 384.981 282.026 C 383.687 283.819 382.382 285.604 381.066 287.381 C 378.282 291.175 375.571 295.017 372.863 298.865 C 366.498 307.901 360.107 316.917 353.613 325.862 C 348.317 333.16 343.065 340.475 337.988 347.928 C 334.087 353.654 330.058 359.237 325.852 364.744 C 323.74 367.551 321.743 370.42 319.738 373.303 C 314.692 380.259 308.814 386.293 300.738 389.553 C 297.996 389.812 295.529 389.93 292.801 389.865 C 291.785 389.87 291.785 389.87 290.748 389.875 C 282.341 389.787 273.613 387.47 267.594 381.385 C 259.82 372.082 256.803 364.415 257.371 352.276 C 257.857 347.352 258.868 344.518 261.738 340.553 C 262.445 339.532 263.151 338.511 263.879 337.459 C 266.014 334.406 268.2 331.393 270.4 328.386 C 272.492 325.519 274.553 322.63 276.613 319.74 C 277.022 319.168 277.431 318.596 277.853 318.007 C 281.106 313.453 284.33 308.879 287.551 304.303 C 291.842 298.209 296.18 292.152 300.551 286.115 C 308.211 276.183 308.211 276.183 314.738 265.553 C 315.398 265.553 316.058 265.553 316.738 265.553 C 307.017 251.435 307.017 251.435 297.051 237.49 C 293.076 232.047 289.189 226.544 285.309 221.032 C 282.484 217.022 279.649 213.02 276.791 209.033 C 275.168 206.769 273.551 204.499 271.935 202.229 C 271.126 201.095 270.313 199.964 269.499 198.834 C 261.031 187.08 255.738 178.596 257.738 163.553 C 260.84 153.51 267.177 147.26 275.738 141.553 C 286.46 138.044 299.886 137.7 309.402 144.44 Z" fill="#000101"/>
  <path d="M 161.617 139.326 C 170.861 138.903 179.292 140.583 186.899 146.126 C 190.635 149.649 193.402 153.809 196.156 158.119 C 197.852 160.726 199.65 163.231 201.488 165.74 C 204.619 170.013 207.723 174.304 210.801 178.615 C 211.438 179.507 211.438 179.507 212.088 180.417 C 214.576 183.906 217.041 187.41 219.488 190.927 C 221.479 193.783 223.506 196.595 225.613 199.365 C 228.558 203.25 231.31 207.257 234.066 211.278 C 237.075 215.646 240.202 219.918 243.363 224.177 C 247.223 229.379 250.774 234.685 254.188 240.193 C 255.627 242.383 257.141 244.331 258.863 246.302 C 259.343 246.851 259.823 247.401 260.317 247.966 C 261.264 249.023 262.233 250.06 263.223 251.076 C 267.269 255.736 267.297 260.15 267.305 266.173 C 266.061 273.591 261.719 279.247 257.176 285.052 C 252.986 290.521 248.932 296.047 245.051 301.74 C 244.37 302.737 244.37 302.737 243.676 303.755 C 242.361 305.686 241.049 307.619 239.738 309.552 C 234.824 316.793 229.776 323.864 224.392 330.759 C 221.024 335.103 217.994 339.609 214.985 344.205 C 210.153 351.491 204.901 358.499 199.738 365.552 C 199.185 366.313 198.631 367.074 198.061 367.858 C 196.461 370.053 194.851 372.241 193.238 374.427 C 192.759 375.087 192.279 375.747 191.784 376.426 C 186.381 383.69 180.554 387.385 171.738 389.552 C 162.85 390.523 153.897 390.044 146.332 384.923 C 140.037 379.73 135.33 373.328 132.738 365.552 C 132.589 362.809 132.507 360.108 132.488 357.365 C 132.468 356.635 132.447 355.904 132.426 355.152 C 132.357 345.448 136.221 339.326 142.176 331.927 C 143.322 330.478 144.467 329.028 145.61 327.576 C 146.155 326.883 146.701 326.19 147.263 325.476 C 149.225 322.918 150.983 320.256 152.738 317.552 C 154.852 314.419 156.983 311.299 159.113 308.177 C 159.665 307.365 160.217 306.553 160.785 305.716 C 163.867 301.202 167.029 296.775 170.332 292.419 C 172.925 288.977 175.405 285.454 177.888 281.931 C 179.942 279.028 182.018 276.165 184.231 273.38 C 184.976 272.426 185.721 271.473 186.488 270.49 C 187.502 269.235 187.502 269.235 188.535 267.955 C 190.009 265.633 190.009 265.633 189.25 263.205 C 187.27 259.73 185.097 256.45 182.801 253.177 C 182.312 252.474 181.824 251.771 181.32 251.046 C 177.18 245.116 172.918 239.28 168.621 233.462 C 159.816 221.539 151.201 209.49 142.88 197.224 C 141.875 195.753 140.853 194.294 139.828 192.837 C 133.199 183.308 131.466 175.325 132.738 163.552 C 135.313 153.992 141.26 148.117 148.801 142.115 C 153.092 139.832 156.836 139.702 161.617 139.326 Z" fill="#000101"/>
</svg>