<svg t="1714121990287" class="icon" viewBox="0 0 1024 1024" version="1.1" xmlns="http://www.w3.org/2000/svg" p-id="5624" width="200" height="200"><path d="M456.704 515.6352V209.7664c0-24.9856 15.7696-47.8208 37.376-54.4768 37.9392-12.9536 73.9328 14.6432 74.7008 53.1968 0.5632 204.6464 0.3584 409.2928 0.4608 613.9392 0 27.648-24.9344 54.9376-55.552 55.8592-32.8704 1.024-57.5488-31.0784-57.344-57.9584 0.8192-101.5296 0.3584-203.1104 0.3584-304.6912z m305.9712-181.504v206.848c0 31.3344-23.2448 56.1664-52.1216 57.6-33.536 1.6896-59.9552-23.1936-60.0576-55.808-0.512-142.3872-0.3584-284.7744-0.256-427.2128 0-18.944 28.9792-46.9504 49.152-48.1792 37.8368-2.304 63.3344 21.8112 63.3344 59.8528-0.0512 69.0176-0.0512 137.9328-0.0512 206.8992z m-499.456 361.0112c0-69.6832 0.2048-139.4176-0.1536-209.1008-0.1024-22.9376 17.7152-46.848 42.0864-52.992 37.8368-9.1136 69.376 18.8416 70.0416 56.1664 0.6144 139.008 0.6656 278.016 0.3072 417.024-0.0512 27.6992-21.9136 56.832-61.952 54.5792-27.5968-1.5872-50.3808-26.2144-50.3808-56.576 0.0512 0 0.0512-209.1008 0.0512-209.1008z m-193.7408 15.5648c0-20.224-0.3584-40.3968 0.1024-60.6208 0.5632-27.0336 22.1696-49.7664 50.4832-52.1728 36.2496-3.0208 63.488 26.2656 62.208 61.3376-1.3312 37.0176 0 74.0864-0.8704 111.1552-2.5088 59.2384-87.9104 71.2192-107.2128 17.92-7.5264-24.7808-3.6864-51.968-4.4544-77.6192h-0.256z m886.6304-391.0144c-2.048 36.8128 11.4176 86.8864-29.184 106.7008-32.256 16.2816-70.9632 2.56-80.8448-37.3248-1.2288-5.0176-2.1504-10.3424-2.1504-15.5136-0.2048-35.9424-0.4096-71.8848 0-107.8272 0.3584-31.488 19.968-53.8112 49.5616-57.7536 33.2288-4.4544 62.464 20.9408 62.5664 54.4256 0.1024 19.0976 0.0512 38.1952 0.0512 57.2928z" fill="#13308F" p-id="5625"></path></svg>